<svg t="1772518585903" class="icon" viewBox="0 0 1024 1024" version="1.1" xmlns="http://www.w3.org/2000/svg" p-id="7530" width="200" height="200"><path d="M954.132 434.708c-152.371-101.744-312.934-116.94-312.934-116.94s8.11 232.407-10.65 302.776c-0.45 9.626-11.592 74.424-42.475 155.935-10.65 27.853-23.798 54.681-38.994 80.527-40.55 73.4-88.679 126.034-88.679 126.034 118.498-48.087 203.039-91.668 306.381-173.67 121.487-95.724 226.796-251.659 187.31-374.702z" fill="#37E1BE" p-id="7531"></path><path d="M331.868 391.168c156.467-99.738 305.316-77.988 308.838-73.933a1.556 1.556 0 0 0 1.024 0.533c0-14.172-6.553-60.252-13.189-105.35-11.633-60.21-22.241-123.535-22.774-132.136C437.176-57.426 252.856 2.867 162.744 105.595 101.959 174.98 60.467 273.695 61.45 327.393v426.803c0.532-12.656 1.556-20.234 2.048-20.234 17.736-194.97 268.37-342.794 268.37-342.794z" fill="#A569FF" p-id="7532"></path><path d="M789.063 269.148c-41.533-43.008-86.59-87.613-120.996-124.068-32.931-34.406-58.736-60.21-62.259-64.798 0.492 8.601 11.1 71.884 22.733 132.137 6.595 45.056 12.698 91.668 13.19 105.349 0 0 160.521 15.155 312.934 116.94-0.533 0-82.576-79.462-165.602-165.56zM549.57 857.006c-2.54 1.024-196.444 105.8-289.096-30.392-20.766-30.393-31.416-67.338-32.931-105.308-3.031-73.933 5.079-225.321 104.325-330.138 0 0-250.675 147.866-267.879 342.794-0.491 0.492-2.048 8.11-2.048 20.234-0.983 32.44 4.588 97.24 42.599 153.437 51.61 77.455 190.873 137.216 324.526 84.541l32.89-9.585c-0.982 0.492 47.105-51.65 87.614-125.583z" fill="#1E37FC" p-id="7533"></path></svg>